<svg width="22" height="22" viewBox="0 0 22 22" fill="none" xmlns="http://www.w3.org/2000/svg">
<path d="M12 21H13C15.8003 21 17.2004 21 18.27 20.455C19.2108 19.9757 19.9757 19.2108 20.455 18.27C21 17.2004 21 15.8003 21 13V9C21 6.19974 21 4.79961 20.455 3.73005C19.9757 2.78924 19.2108 2.02433 18.27 1.54497C17.2004 1 15.8003 1 13 1H9C6.19974 1 4.79961 1 3.73005 1.54497C2.78924 2.02433 2.02433 2.78924 1.54497 3.73005C1 4.79961 1 6.19974 1 9V13C1 15.8003 1 17.2004 1.54497 18.27C2.02433 19.2108 2.78924 19.9757 3.73005 20.455C4.79961 21 6.19974 21 9 21H12ZM12 21V10.2C12 9.07989 12 8.51984 12.218 8.09202C12.4097 7.71569 12.7157 7.40973 13.092 7.21799C13.5198 7 14.0799 7 15.2 7H16M9 13H16" stroke="#817D92" stroke-width="2" stroke-linecap="round" stroke-linejoin="round"/>
</svg>
